<?xml version="1.0" ?><svg data-name="Filled Outline" id="Filled_Outline" viewBox="0 0 128 128" xmlns="http://www.w3.org/2000/svg"><title/><path d="M69.353,19.144c-15.36-1.779-20.57,5.1-22.2,8.576a5.41,5.41,0,0,1-2.81,2.668C32.31,35.5,25.8,51.73,29.219,53.19c2.368,1.01.325,8.557,2.08,15.285l65.4-1a103.126,103.126,0,0,0,.126-16.706,3.891,3.891,0,0,1,1.247-3.154,4.932,4.932,0,0,0,1.755-3.687C100.19,38.735,83.32,21.141,69.353,19.144Z" style="fill:#3d60ac"/><path d="M31.3,67.475c-3.04,1.447-3.976,5.144-2.72,9.162,1.245,4,6.33,7.659,10.125,6.244L37.238,67.505A6.559,6.559,0,0,0,31.3,67.475Z" style="fill:#f97d8c"/><path d="M96.7,67.475a6.559,6.559,0,0,0-5.939.03L89.3,82.881c3.795,1.415,8.88-2.249,10.125-6.244C100.677,72.619,99.741,68.922,96.7,67.475Z" style="fill:#f97d8c"/><path d="M81.753,32.813a1.5,1.5,0,0,1-.782-.221l-.572-.354c-7.226-4.493-17.872-9.468-26.876-.831a1.5,1.5,0,0,1-2.076-2.165C63.168,18,77.33,26.8,81.983,29.69l.554.343a1.5,1.5,0,0,1-.784,2.78Z" style="fill:#332c44"/><path d="M90.762,67.505C90.5,56.98,86.3,44.443,77.362,37.758c-6.347-4.744-18.1-6.548-24.069-1.484a6.342,6.342,0,0,1-1.245.84C41.654,42.34,37.493,57.2,37.238,67.505A62.021,62.021,0,0,0,38.59,82.411c2.2,9.433,9.387,15.833,16.669,19.181a20.02,20.02,0,0,0,17.482,0c7.282-3.348,14.469-9.748,16.669-19.181A62.021,62.021,0,0,0,90.762,67.505Z" style="fill:#ff9ea7"/><path d="M83.9,56.014a13.989,13.989,0,0,0-10.869-1.047,1.566,1.566,0,0,0-1,1.815h0a1.57,1.57,0,0,0,1.751,1.236,23.7,23.7,0,0,1,7.759-.005c1.818.438,2.557.009,2.847-.515A1.131,1.131,0,0,0,83.9,56.014Z" style="fill:#332c44"/><rect height="6.604" rx="2.528" ry="2.528" style="fill:#332c44" width="5.056" x="74.967" y="63.616"/><path d="M82,65.784a1.491,1.491,0,0,1-1-.383,5.468,5.468,0,0,0-5.85-.57A1.5,1.5,0,0,1,73.67,62.22,8.471,8.471,0,0,1,83,63.166a1.5,1.5,0,0,1-1,2.618Z" style="fill:#332c44"/><path d="M44.105,56.014a13.989,13.989,0,0,1,10.869-1.047,1.566,1.566,0,0,1,1,1.815h0a1.57,1.57,0,0,1-1.751,1.236,23.7,23.7,0,0,0-7.759-.005c-1.818.438-2.557.009-2.847-.515A1.131,1.131,0,0,1,44.105,56.014Z" style="fill:#332c44"/><rect height="6.604" rx="2.528" ry="2.528" style="fill:#332c44" transform="translate(101.01 133.836) rotate(180)" width="5.056" x="47.977" y="63.616"/><path d="M46.005,65.784a1.5,1.5,0,0,1-1-2.618,8.473,8.473,0,0,1,9.326-.946,1.5,1.5,0,0,1-1.476,2.611A5.47,5.47,0,0,0,47,65.4,1.491,1.491,0,0,1,46.005,65.784Z" style="fill:#332c44"/><path d="M37.431,76.233a1.5,1.5,0,0,1-1.221-.626,3.419,3.419,0,0,0-2.787-1.5,1.5,1.5,0,0,1-.25-2.99,6.425,6.425,0,0,1,5.476,2.748,1.5,1.5,0,0,1-1.218,2.373Z" style="fill:#332c44"/><path d="M90.569,76.233a1.5,1.5,0,0,1-1.218-2.373,6.411,6.411,0,0,1,5.476-2.748A1.5,1.5,0,0,1,94.6,74.1a3.434,3.434,0,0,0-2.8,1.5A1.5,1.5,0,0,1,90.569,76.233Z" style="fill:#332c44"/><path d="M31.3,68.975a1.5,1.5,0,0,1-1.45-1.122,35.017,35.017,0,0,1-.859-9.073c0-1.619,0-3.836-.385-4.229-.653-.271-1.794-1.105-1.793-3.428,0-5.259,6.439-17.65,16.945-22.115a3.928,3.928,0,0,0,2.04-1.925c1.628-3.473,7.2-11.339,23.729-9.429,13.972,2,32.259,19.769,31.8,26.378a6.426,6.426,0,0,1-2.228,4.68,2.391,2.391,0,0,0-.775,1.938,100.526,100.526,0,0,1-.14,17.068,1.5,1.5,0,0,1-2.961-.487,98.722,98.722,0,0,0,.111-16.343,5.366,5.366,0,0,1,1.72-4.37,3.471,3.471,0,0,0,1.281-2.693c.255-3.679-15.356-21.218-29.192-23.2C55.1,19,50.192,24.773,48.512,28.357a6.933,6.933,0,0,1-3.582,3.412c-8.088,3.437-13.195,11.909-14.654,16.766-.612,2.037-.487,3.047-.371,3.319,2.087.968,2.085,3.6,2.084,6.927A32.6,32.6,0,0,0,32.75,67.1,1.5,1.5,0,0,1,31.3,68.975Z" style="fill:#332c44"/><path d="M36.933,84.688a8.821,8.821,0,0,1-3.862-.958,11.81,11.81,0,0,1-5.924-6.647c-1.536-4.913-.16-9.217,3.507-10.963a7.994,7.994,0,0,1,7.4.124,1.5,1.5,0,0,1-1.621,2.524,5.086,5.086,0,0,0-4.485.061c-2.238,1.066-3,3.955-1.932,7.36a8.8,8.8,0,0,0,4.382,4.848,4.873,4.873,0,0,0,3.787.439,1.5,1.5,0,0,1,1.049,2.81A6.54,6.54,0,0,1,36.933,84.688Z" style="fill:#332c44"/><path d="M91.067,84.688a6.544,6.544,0,0,1-2.3-.4,1.5,1.5,0,0,1,1.049-2.81,4.863,4.863,0,0,0,3.787-.439,8.8,8.8,0,0,0,4.382-4.847c1.065-3.406.306-6.3-1.932-7.361a5.086,5.086,0,0,0-4.485-.061,1.5,1.5,0,0,1-1.621-2.524,7.989,7.989,0,0,1,7.4-.124c3.667,1.746,5.043,6.05,3.507,10.964a11.811,11.811,0,0,1-5.924,6.646A8.821,8.821,0,0,1,91.067,84.688Z" style="fill:#332c44"/><path d="M63.979,105.1a22.237,22.237,0,0,1-9.384-2.164c-9.068-4.168-15.448-11.532-17.466-20.185a61.57,61.57,0,0,1-1.393-14.775l0-.477c.3-12.044,5.248-26.5,15.637-31.726h0a4.8,4.8,0,0,0,.948-.644c6.442-5.463,19.006-3.753,25.938,1.427,9.942,7.432,13.751,20.841,14,30.911l0,.509a61.57,61.57,0,0,1-1.393,14.775c-2.018,8.653-8.4,16.017-17.5,20.2A22.689,22.689,0,0,1,63.979,105.1ZM63.01,34.74c-3.379,0-6.548.814-8.746,2.678a7.767,7.767,0,0,1-1.541,1.036h0C43.494,43.094,39,56.785,38.738,67.542l0,.449A58.9,58.9,0,0,0,40.051,82.07c2.565,11,11.928,16.363,15.835,18.159a18.521,18.521,0,0,0,16.191.018c3.944-1.814,13.307-7.178,15.872-18.177a58.9,58.9,0,0,0,1.315-14.079l0-.481c-.221-8.905-3.7-21.754-12.8-28.551A23.661,23.661,0,0,0,63.01,34.74ZM52.049,37.114h0Z" style="fill:#332c44"/><path d="M45.709,77.13a1.5,1.5,0,0,1-1.4-.966c-.052-.131-1.356-3.36-4.412-3.36a1.5,1.5,0,0,1,0-3c5.14,0,7.132,5.076,7.214,5.292a1.5,1.5,0,0,1-1.4,2.034Z" style="fill:#332c44"/><path d="M82.289,77.126a1.5,1.5,0,0,1-1.371-2.1c.094-.215,2.369-5.263,7.457-5.263a1.5,1.5,0,0,1,0,3c-3.114,0-4.7,3.44-4.713,3.475A1.507,1.507,0,0,1,82.289,77.126Z" style="fill:#332c44"/><path d="M64,104.8c8.048,0,17.394-6.27,20.962-12.269,2.431-4.087,1.93-10.4-.968-14.9C80.457,72.145,69.933,69.208,64,69.208s-16.457,2.937-19.994,8.426c-2.9,4.5-3.4,10.813-.968,14.9C46.606,98.533,55.952,104.8,64,104.8Z" style="fill:#5dc7ec"/><path d="M80.2,81.755a1.5,1.5,0,0,1-.994-.378A25.377,25.377,0,0,0,64,75.546a25.377,25.377,0,0,0-15.2,5.831,1.5,1.5,0,0,1-1.99-2.245A28.272,28.272,0,0,1,64,72.546a28.272,28.272,0,0,1,17.193,6.586,1.5,1.5,0,0,1-1,2.623Z" style="fill:#332c44"/><path d="M64,106.3c-8.685,0-18.518-6.723-22.252-13-2.675-4.5-2.256-11.43,1-16.479C46.576,70.875,57.551,67.708,64,67.708s17.424,3.167,21.255,9.114c3.253,5.049,3.672,11.98,1,16.479C82.518,99.58,72.685,106.3,64,106.3Zm0-35.595c-5.74,0-15.644,2.944-18.733,7.739-2.626,4.077-3.031,9.8-.941,13.321C47.571,97.224,56.449,103.3,64,103.3s16.429-6.079,19.674-11.535c2.09-3.517,1.685-9.244-.941-13.321C79.644,73.652,69.74,70.708,64,70.708Z" style="fill:#332c44"/><path d="M87.219,71.6c3.067-2.277,5.391,4.233,8.914,5.748a3.2,3.2,0,0,0,4.1-.993,4.6,4.6,0,0,0-1.993-6.7c-4.04-1.894-5.562-4.13-4.586-5.635A2.707,2.707,0,0,1,96.832,63c2.461.818,11.289,2.279,10.125,10.865h0c1.5-4.684,6.641-12.512,9.581-11.464a2.5,2.5,0,0,1,1.223,3.234,18.009,18.009,0,0,1-1.084,2.339c1.171-1.7,3.553-2.372,4.779-1.213.854.806.771,2.023-.085,4.142a74.831,74.831,0,0,1-4.11,8.09c2.793-5.128,6.8-6.5,7.869-4.792,1.35,2.157-3.62,7.629-6,11.646a62.011,62.011,0,0,0-5.6,11.854,29.766,29.766,0,0,0-1.2,5.344,6.253,6.253,0,0,1-6.661,5.345,33.825,33.825,0,0,1-4.515-.635,6.2,6.2,0,0,1-4.905-6.653c.268-2.837.374-5.687-.031-6.9a84.951,84.951,0,0,0-4.691-10.738C89.112,78.587,84.3,73.766,87.219,71.6Z" style="fill:#ff9ea7"/><path d="M40.8,71.437c-3.064-2.28-5.39,4.233-8.914,5.749a3.2,3.2,0,0,1-4.1-.993,4.6,4.6,0,0,1,1.994-6.7c4.039-1.893,5.562-4.13,4.586-5.634a2.709,2.709,0,0,0-3.175-1.019c-2.46.819-11.289,2.28-10.124,10.866h0c-1.506-4.684-6.642-12.512-9.581-11.464a2.5,2.5,0,0,0-1.224,3.234,18.225,18.225,0,0,0,1.085,2.339c-1.171-1.7-3.553-2.372-4.78-1.214-.853.807-.771,2.023.085,4.143a74.813,74.813,0,0,0,4.111,8.09c-2.793-5.128-6.8-6.5-7.87-4.792-1.35,2.157,3.62,7.629,6,11.646a61.943,61.943,0,0,1,5.595,11.854,29.661,29.661,0,0,1,1.2,5.344,6.254,6.254,0,0,0,6.661,5.345,33.863,33.863,0,0,0,4.516-.635,6.2,6.2,0,0,0,4.905-6.653c-.268-2.837-.375-5.688.031-6.895a84.665,84.665,0,0,1,4.691-10.739C38.909,78.428,43.726,73.6,40.8,71.437Z" style="fill:#ff9ea7"/><path d="M41.7,70.548c-2.973-2.243-5.414.612-7.2,2.694a11.087,11.087,0,0,1-3.222,2.968,1.7,1.7,0,0,1-2.345-.586,3.171,3.171,0,0,1-.307-2.332,3.067,3.067,0,0,1,1.788-2.166c3.121-1.486,5.051-3.251,5.582-5.1a3.328,3.328,0,0,0-.377-2.782,4.158,4.158,0,0,0-4.919-1.648c-.239.08-.544.167-.895.269-2.344.674-7.59,2.186-9.574,6.715-1.684-3-3.918-5.917-6.034-7.128A3.77,3.77,0,0,0,10.971,61,3.782,3.782,0,0,0,8.6,64.779c-.012,0-.023,0-.035-.006a3.717,3.717,0,0,0-3.04.98C3.87,67.341,4.46,69.6,5.255,71.6c.124.313.263.642.409.979a4.956,4.956,0,0,0-1.438-.283,2.848,2.848,0,0,0-2.614,1.312c-1.484,2.41.88,5.827,3.618,9.784.887,1.282,1.725,2.493,2.368,3.592a62.285,62.285,0,0,1,5.467,11.761A28.988,28.988,0,0,1,14.2,103.9a7.779,7.779,0,0,0,7.694,6.749c.186,0,3.7-.359,5.281-.694a7.781,7.781,0,0,0,6.087-8.366c-.438-4.716-.14-6.087-.038-6.394a86.02,86.02,0,0,1,4.614-10.724A44.954,44.954,0,0,1,40.2,80.411C42.4,76.913,44.888,72.948,41.7,70.548Zm-4.048,8.266a47.039,47.039,0,0,0-2.516,4.338,88.473,88.473,0,0,0-4.766,11.1c-.156.472-.631,1.907-.1,7.614a4.781,4.781,0,0,1-3.723,5.153,31.772,31.772,0,0,1-4.312.616,4.764,4.764,0,0,1-5.065-4.131,32.245,32.245,0,0,0-1.261-5.7,65.177,65.177,0,0,0-5.724-12.327c-.7-1.2-1.611-2.514-2.491-3.786C6.534,80,4.016,76.938,4.181,75.706a.522.522,0,0,1,.407-.435c.567-.128,3.351,1.926,5.184,5.292a1.579,1.579,0,0,0,1.843.816,1.5,1.5,0,0,0,.855-2.135c-.154-.287-.316-.566-.482-.841-.011-.023-.017-.047-.03-.069a74.314,74.314,0,0,1-3.916-7.845c-.393-.989-.783-2.054-.439-2.572a.786.786,0,0,1,.715-.282c1.353.247,3.1,3.641,3.782,4.815,1.1,1.883,2.23,3.829,3.2,5.8a1.5,1.5,0,1,0,2.689-1.33c-1.019-2.062-2.231-4.144-3.3-5.98a41.827,41.827,0,0,1-3.017-5.745c-.2-.555-.028-1.234.318-1.379a.828.828,0,0,1,.883-.008c2.654,1.519,6.352,8.324,7.027,11.711a1.566,1.566,0,0,0,1.482,1.313,1.5,1.5,0,0,0,1.484-1.775c-.071-.382-.223-.8-.322-1.26-1.264-5.893,3.774-7.809,8.1-9.053.4-.117,1.084-.405,1.367-.473.437-.106,1.337.312,1.092,1.121-.213.7-1.35,1.778-3.971,3.026a6.084,6.084,0,0,0-3.425,4.223,6.179,6.179,0,0,0,.71,4.589,12.531,12.531,0,0,0-6.728,7.024,1.558,1.558,0,0,0,.6,1.964,1.5,1.5,0,0,0,2.124-.712c2.4-5.6,6.671-6.022,7.361-6.053a5.483,5.483,0,0,0,2.711-.494,13.223,13.223,0,0,0,4.3-3.766c2.042-2.387,2.566-2.66,3.11-2.25C40.811,73.631,39.544,75.811,37.656,78.814Z" style="fill:#332c44"/><path d="M126.408,73.606a2.847,2.847,0,0,0-2.613-1.312,4.95,4.95,0,0,0-1.438.283c.146-.337.284-.666.409-.979.794-2,1.384-4.257-.27-5.845a3.715,3.715,0,0,0-3.04-.98l-.034.006a3.573,3.573,0,0,0-5.607-3.331c-2.116,1.211-4.349,4.125-6.033,7.128-1.985-4.529-7.231-6.041-9.574-6.715-.352-.1-.656-.189-.9-.269a4.158,4.158,0,0,0-4.919,1.648,3.328,3.328,0,0,0-.377,2.782c.532,1.853,2.461,3.618,5.583,5.1a3.069,3.069,0,0,1,1.788,2.166,3.165,3.165,0,0,1-.308,2.332,1.7,1.7,0,0,1-2.345.586,11.073,11.073,0,0,1-3.221-2.968c-1.783-2.082-4.224-4.937-7.2-2.694-3.183,2.4-.69,6.365,1.509,9.863a44.954,44.954,0,0,1,2.359,4.056A86.043,86.043,0,0,1,94.8,95.191c.1.307.4,1.678-.038,6.394a7.78,7.78,0,0,0,6.087,8.366c1.581.335,5.094.694,5.281.694a7.779,7.779,0,0,0,7.693-6.749,29.076,29.076,0,0,1,1.133-5.153,62.23,62.23,0,0,1,5.468-11.761c.642-1.1,1.48-2.31,2.367-3.592C125.528,79.433,127.892,76.016,126.408,73.606Zm-6.085,8.077c-.88,1.272-1.791,2.588-2.49,3.786A65.248,65.248,0,0,0,112.108,97.8a32.16,32.16,0,0,0-1.26,5.7,4.765,4.765,0,0,1-5.066,4.131,31.758,31.758,0,0,1-4.311-.616,4.781,4.781,0,0,1-3.724-5.153c.53-5.707.056-7.142-.1-7.614a88.451,88.451,0,0,0-4.765-11.1,47.277,47.277,0,0,0-2.517-4.338c-1.888-3-3.154-5.183-2.241-5.871.545-.41,1.068-.137,3.11,2.25a13.223,13.223,0,0,0,4.3,3.766,5.485,5.485,0,0,0,2.711.494c.691.031,4.962.453,7.361,6.053a1.5,1.5,0,0,0,2.125.712,1.561,1.561,0,0,0,.6-1.964A12.535,12.535,0,0,0,101.6,77.23a6.179,6.179,0,0,0,.71-4.589,6.085,6.085,0,0,0-3.424-4.223c-2.622-1.248-3.758-2.323-3.972-3.026-.245-.809.655-1.227,1.092-1.121.284.068.964.356,1.368.473,4.323,1.244,9.361,3.16,8.1,9.053-.1.459-.25.878-.322,1.26a1.5,1.5,0,0,0,1.484,1.775,1.565,1.565,0,0,0,1.482-1.313c.676-3.387,4.373-10.192,7.027-11.711a.827.827,0,0,1,.883.008c.346.145.514.824.319,1.379a41.851,41.851,0,0,1-3.018,5.745c-1.07,1.836-2.282,3.918-3.3,5.98a1.5,1.5,0,0,0,2.69,1.33c.973-1.971,2.107-3.917,3.2-5.8.684-1.174,2.429-4.568,3.782-4.815a.788.788,0,0,1,.715.282c.344.518-.047,1.583-.44,2.572a74.118,74.118,0,0,1-3.916,7.845c-.012.022-.018.046-.03.069-.166.275-.328.554-.481.841a1.5,1.5,0,0,0,.854,2.135,1.58,1.58,0,0,0,1.844-.816c1.833-3.366,4.616-5.42,5.183-5.292a.523.523,0,0,1,.408.435C124.005,76.938,121.487,80,120.323,81.683Z" style="fill:#332c44"/></svg>